<svg xmlns="http://www.w3.org/2000/svg" xmlns:xlink="http://www.w3.org/1999/xlink" viewBox="0 0 1375.03 831.83"><defs><style>.cls-1{fill:none;}.cls-2{clip-path:url(#clip-path);}.cls-3{fill:#e57a9b;}.cls-4{fill:#c6ecc7;}.cls-5{fill:#0133f7;}.cls-6{fill:#ff6027;}.cls-7{fill:#101b5f;}.cls-8{fill:#f1a46a;}.cls-9{fill:#ff1d43;}.cls-10{fill:#007f58;}</style><clipPath id="clip-path" transform="translate(138.03 15.33)"><rect class="cls-1" width="1088" height="652"/></clipPath></defs><title>Wildschwein</title><g id="Ebene_4" data-name="Ebene 4"><g class="cls-2"><rect class="cls-3" x="113.03" y="15.33" width="1262" height="768"/><path class="cls-4" d="M88,330C40.79,446,13.75,512.37,38,575c30.81,79.59,127.67,109.8,170,123,142.82,44.54,198.07-22,543-86,129-24,182.28-26,234-78,61-61.35,96.49-168.74,60-249-9.69-21.32-30.19-53.31-210-138C719.29,92.5,661.44,65.25,619,56c-22.53-4.91-295.16-60.49-441,97C146,187.57,126.66,235,88,330Z" transform="translate(138.03 15.33)"/><path class="cls-5" d="M-34.61,249.58c-38-43.44-22.4-136.5,23.42-192C79.08-51.78,283.11-11,379.84,8.4,575.9,47.64,699.55,149,787.27,222.65c101.15,85,179.31,150.65,168.59,228.3C944.73,531.54,839.73,611.53,734.58,616c-229.11,9.82-303.69-345.37-576-352.4C74.38,261.46,3.7,293.38-34.61,249.58Z" transform="translate(138.03 15.33)"/><path class="cls-6" d="M-127.4,174.49c20.64-9.56,43.74-12.59,66.48-13.05a321.3,321.3,0,0,1,186.61,55.64c11.18,7.65,22.12,16.29,29.13,27.88,6.32,10.46,9,22.69,10.53,34.82a196.47,196.47,0,0,1-38.87,142A196.47,196.47,0,0,1-.85,495.71c-9.58,1.32-19.6,1.88-28.66-1.51-8.18-3.07-14.88-9.11-20.74-15.6-37.32-41.35-45.22-100.71-50.28-156.19-2.66-29.13-5-58.55-1.15-87.55S-87.29,177-67.19,155.74" transform="translate(138.03 15.33)"/><path class="cls-7" d="M-107.2,486.15C17.33,430,165,439.57,291.37,491.39c42.29,17.33,82.89,39.19,126.77,52,103.12,30,215.26,7.41,319.68,32.48A360.88,360.88,0,0,1,933,699.3c13.13,16.3,25.32,38.08,16.61,57.11-10,21.76-39.28,24.36-63.21,24q-157.56-2.54-315,6.12c-166,9.14-331.62,27.62-497.89,29.84-43,.57-86.53,0-128.28-10.42-19.8-4.94-39.65-12.45-54.31-26.65-26.57-25.74-30.11-66.77-28.6-103.73A610.78,610.78,0,0,1-100.65,489.6" transform="translate(138.03 15.33)"/><path class="cls-7" d="M636.3,283.85a159.91,159.91,0,0,0,122.1-4.64q-12.44-7.65-24.53-15.86a108.45,108.45,0,0,0,25.88-18.44,60.08,60.08,0,0,1-20.83-5.13A39.24,39.24,0,0,0,756.66,226a23.06,23.06,0,0,1-10.79-4.46,63.12,63.12,0,0,0,17.64-33.58l-8,1.68a94.21,94.21,0,0,0,11.7-35.31l-5.84.34c1.78-13.54,2.27-28.05-4.21-40.07-7.23-13.4-22.26-21.34-37.39-23.1s-30.39,1.88-44.75,7c-12.52,4.45-24.72,10.07-35.48,17.86a102.23,102.23,0,0,0-.4,165.37" transform="translate(138.03 15.33)"/><path class="cls-6" d="M458.52,283.9c3.39-9.4,9.76-17.42,16.65-24.65C491.63,242,513,227.72,536.76,226.17s49.57,12.88,55,36.11c1.78,7.59,1.36,15.51.94,23.29l-1.35,24.87c-.38,7.07-.79,14.28-3.37,20.88-5.5,14.1-20.48,23.06-35.57,24.26s-30.06-4.32-42.86-12.38c-8.59-5.41-16.54-12-25.95-15.82a48.94,48.94,0,0,0-33-1.19c-3.9,1.25-8.66,2.85-11.69.08-3.62-3.3-1.12-9.25,1.55-13.35l20.84-32.09" transform="translate(138.03 15.33)"/><path class="cls-6" d="M639.05,286.66a128.41,128.41,0,0,1,26,63.62,83.94,83.94,0,0,1,19.77,63.85l-5.32-5.42c22,20.51,21.67,55,18.44,84.86a1048.43,1048.43,0,0,1-19.28,116.54c-1.18,5.25-2.48,10.69-5.84,14.89-2.58,3.23-6.22,5.52-8.61,8.89-4.8,6.76-3.49,15.91-5,24.06-4.13,23.1-30.88,35.85-54.3,34.42s-44.87-12.82-67-20.71c-7.38-2.64-15.21-4.92-23-3.77-9,1.33-16.64,7.06-25.27,9.84-11.14,3.6-23.18,2.12-34.88,1.73-4-.13-8.5,0-11.36,2.87-4,3.91-2.69,10.43-1.48,15.87,3.53,15.85,1.87,36.24-12.86,43.09-4.57,2.13-9.74,2.53-14.78,2.73a231.83,231.83,0,0,1-84.18-12.27c-12.09-4.14-25.19-10.73-28.76-23-1.87-6.41-.72-13.28-1.34-19.93-1.63-17.45-14.87-31.23-27-43.93C259.63,630.7,246.66,616,235.37,600c-12.9-18.26-23.93-40.08-20.19-62.13,2.89-17.09,14.21-31.45,26-44.12,3.57-3.83,7.36-7.68,12.16-9.77,5.41-2.36,11.54-2.26,17.43-2,86.46,4.21,173.35,38.66,257.46,18.19,12.52-3,24.93-7.38,35.41-14.88,7.85-5.62,14.4-12.86,20.43-20.39a247.13,247.13,0,0,0,27.22-42.1c4.36-8.53,8.29-17.64,8.3-27.22,0-12.54-6.65-24-9.88-36.13-7.57-28.4,6-61.06,31.55-75.67" transform="translate(138.03 15.33)"/><path class="cls-8" d="M415.07,118.15a462.14,462.14,0,0,1,176.44-6.8c4.83.75,9.81,1.58,14.57.45,4.17-1,7.84-3.39,11.48-5.65a207,207,0,0,1,76.26-28.3c19.44-3.08,42.28-2.1,54.82,13.07,11.78,14.24,9.69,35,6.54,53.23-4.94,28.62-11.1,57.57-25.2,83S692.63,274.2,664.18,280c-5.92,1.21-12.12,1.77-17.44,4.63-4.79,2.57-8.46,6.8-11.65,11.2-28.72,39.62-21.18,101,16.28,132.44l-20.39-.1a63.39,63.39,0,0,1,23,48,70.09,70.09,0,0,0-37.52-11.07A88.1,88.1,0,0,1,627.13,519c-26.56-20.38-64.42-18.09-96.07-7.19s-60.46,29.2-92.51,38.89a182.83,182.83,0,0,1-51.45,7.8c-33.91.25-71.54-12.11-86.52-42.53-2.11-4.27-3.78-8.9-7.07-12.34-4.28-4.46-10.62-6.22-15.73-9.71-16.08-11-15.67-34.38-13.51-53.72l-12.2-.67L286,415.23l-11.12-6.47L289.18,394c-3.54-5.19-2.26-12.52,1.36-17.65s9.12-8.56,14.47-11.85l-14-7.39,12.35-12.79c-2.57-4.5-.4-10.41,3.29-14.05s8.58-5.72,13-8.46c20.57-12.83,28.46-42.47,17-63.83C328,242,311.18,231.93,302,216.33c-7.81-13.34-9.24-29.36-10-44.79q-1.79-35.37-.28-70.81c.38-9,1.13-18.52,6.52-25.7,6.35-8.45,18-11.58,28.46-10.29s20.12,6.32,29.27,11.6a415.07,415.07,0,0,1,58.07,40.5" transform="translate(138.03 15.33)"/><path class="cls-9" d="M326.23,203.67l2.22-21.42c1.13-11,2.37-22.25,7.64-31.93s14.44-17.86,14.69-28.78c.17-7.42-4.12-14.4-9.84-19.12s-12.77-7.51-19.78-9.95c-4-1.4-8.61-2.67-12.37-.68a12.55,12.55,0,0,0-5.06,5.95c-3.73,7.81-3.62,16.83-3.43,25.48l.93,43.73c.23,10.77.66,22.2,6.66,31.15,2.15,3.21,5.2,6.1,9,6.82s8.27-1.45,9-5.24" transform="translate(138.03 15.33)"/><path class="cls-6" d="M396.86,499c23.91-11.9,40.06-38,40.08-64.68,17.91,7.75,28.75,28.31,26.79,47.72S448.1,518.83,430.39,527s-38.8,7.72-57,.55c-5.21-2.06-10.24-4.64-15.67-6s-11.29-1.43-16.07-4.29-7.58-10.14-3.56-14c1.92-1.84,4.73-2.3,7.36-2.64a258.84,258.84,0,0,1,46-1.81c3.41.17,7.82-.25,8.77-3.53" transform="translate(138.03 15.33)"/><path class="cls-6" d="M717.43,99.95l-52.31,19.18c-17.42,6.39-37.27,15.38-41.47,33.46-3.55,15.24,5.82,30.26,8.22,45.72,3.78,24.32-9.5,51.22,2.35,72.79l19.24-19.6A40.69,40.69,0,0,1,658,263.68a186.79,186.79,0,0,1,26-23.34l4.39,8.12,17.4-45.31c10.79-28.1,21.77-58,16.41-87.6-.66-3.63-1.65-7.39-4.14-10.11s-6.92-4-10-1.94" transform="translate(138.03 15.33)"/><path class="cls-9" d="M659.57,233.72A110.77,110.77,0,0,0,651.16,162c-3.28-6.75-7.35-13.52-7.49-21-.25-13.43,11.91-23.66,23.84-29.83a131.66,131.66,0,0,1,44.75-13.77c8.21-1,17.6-.77,23.31,5.2,5.15,5.39,5.53,13.68,4.91,21.11-3.54,42.43-30,80.41-63.53,106.65-5.12,4-12.64,7.77-17.56,3.53" transform="translate(138.03 15.33)"/><path class="cls-9" d="M450.15,689.87Q433.64,652,414.4,615.39c-3.8-7.22-7.91-14.68-14.6-19.35-4.17-2.91-10-6.68-8.1-11.38,1.41-3.44,6-3.91,9.72-3.85,47.69.77,97.8-.77,139.1-24.62,5.7-3.29,11.27-7,17.61-8.78s13.81-1.16,18.55,3.41,5.56,11.44,6.12,17.84a587.09,587.09,0,0,1-1.28,115.5c-.76,6.91-2.46,15-8.8,17.83s-13.56-1.28-19.68-4.74a113.82,113.82,0,0,0-85.81-10.35c-6.66,1.87-15.31,3.72-19.24-2" transform="translate(138.03 15.33)"/><path class="cls-3" d="M318,404a296.76,296.76,0,0,1,20.46-54.82c7.28-14.84,16-29.66,17.24-46.14.77-10.1-1.33-20.17-3.42-30.08l-7.85-37.23c-1.44-6.81-2.87-13.86-1.39-20.66,1.38-6.3,5.13-11.77,8.81-17.07,7.95-11.44,16.14-23.13,27.6-31.06,5.17-3.58,11-6.41,15-11.26,2.81-3.4,4.57-7.65,7.75-10.72,4.13-4,10.11-5.46,15.84-5.76,33.09-1.76,59.4,28.45,91.9,34.94,10.88,2.17,23.28,2.06,31.2,9.82s8,20.94,2.79,30.63-14.62,16.4-24.3,21.62-20,9.37-29,15.75c-11.67,8.31-20.45,20-29,31.48-6.38,8.54-12.81,17.17-17.21,26.88-9.63,21.23-8.76,45.64-5.95,68.78s7.38,46.45,4.51,69.59-14.93,46.78-36.29,56.11a122.55,122.55,0,0,0-11.39-58.74c-4.81-10.24-11.28-20-20.53-26.57-16.57-11.7-41.58,8.24-61.84,9.49C313.25,425.38,318,404,318,404Z" transform="translate(138.03 15.33)"/><path class="cls-6" d="M272.32,452.52l13.38-21.33c3.76-6,7.8-12.27,14.07-15.58,6.06-3.21,13.6-3.28,19.1-7.37,6.05-4.5,8-12.6,12.55-18.64a26.31,26.31,0,0,1,21.71-10.35c5.44.21,10.69,2.14,15.53,4.65a66.59,66.59,0,0,1,29.81,31.55c1.61,3.6,2.94,7.39,5.35,10.51,2,2.64,4.77,4.67,7.09,7.08,10.9,11.36,11,29.29,7.64,44.67-.65,3-1.48,6-3.57,8.24s-5.83,3.12-8.18,1.2a10.23,10.23,0,0,1-2.49-4c-6-13.37-17.29-23.46-28.34-33.05-9.68-8.4-19.61-16.9-31.44-21.82s-26.08-5.78-37,.91c-6.57,4-11.35,10.31-17,15.59s-12.89,9.79-20.53,8.78" transform="translate(138.03 15.33)"/><path class="cls-10" d="M310.73,501.44c18.94-4,25.61-1.15,44,4.81,7.29,2.36,14.37,5.49,21.9,6.89,13.76,2.56,29.06-1.39,38.38-11.84s11.16-27.5,2.69-38.64c-7.14-9.39-19.63-13.23-27.5-22-5.67-6.34-8.67-15-15.25-20.34-7.54-6.17-18.05-6.78-27.79-7.1-10.66-.35-21.58-.66-31.69,2.73-11.85,4-21.44,12.63-30.66,21.06-8.42,7.7-17.41,16.52-18.3,27.89-.79,10,5.82,18.87,13.17,25.7C298.16,507.72,310.73,501.44,310.73,501.44Z" transform="translate(138.03 15.33)"/><path class="cls-7" d="M294.14,462.21a15.91,15.91,0,0,1,14.68,4.66c4.88,5.27,5.23,14.39.21,19.52s-14.84,4.56-18.67-1.51c-2.15-3.4-2.29-7.66-2.25-11.68,0-2.51.13-5.15,1.41-7.31S294.14,462.21,294.14,462.21Z" transform="translate(138.03 15.33)"/><path class="cls-7" d="M353.63,478.77a14.52,14.52,0,0,0,9.88,14.3,23.77,23.77,0,0,0,7,.81c5.84,0,12.27-1,16.07-5.42,4.6-5.38,3.14-14.3-2.08-19.08s-13.09-5.81-20-4.11C364.58,465.28,354.25,468.12,353.63,478.77Z" transform="translate(138.03 15.33)"/><path class="cls-8" d="M436.49,689.09a74.69,74.69,0,0,0-23.53-50c-8-7.46-17.64-13-27.14-18.52l-50.72-29.34c-8.92-5.16-19.38-10.49-29.07-7s-14.57,15.19-13.62,25.53,6.3,19.68,11.49,28.67,10.45,18.41,11.19,28.76c.53,7.34-1.28,14.64-1.72,22s.8,15.41,6.15,20.47c3.92,3.71,9.4,5.2,14.67,6.37a224.12,224.12,0,0,0,69.8,4.24c7.9-.76,16.23-2.15,22.23-7.35,7.65-6.64,9.49-17.6,10.81-27.64" transform="translate(138.03 15.33)"/><path class="cls-9" d="M537,335.12a362.82,362.82,0,0,1-35.13-11.79c-5.27-2.07-10.73-4.45-14.22-8.91-4.54-5.82-4.71-14.17-2.12-21.08s7.55-12.65,12.69-17.94A209,209,0,0,1,514.79,260c6.65-5.51,13.93-10.75,22.39-12.48s18.35.89,22.87,8.25c2.57,4.19,3.12,9.27,3.6,14.17l4.71,47.58c.37,3.7.72,7.54-.55,11-2.22,6.15-9.05,9.66-15.59,10s-12.89-1.91-19.06-4.12" transform="translate(138.03 15.33)"/><path class="cls-7" d="M505.35,308.7a102.78,102.78,0,0,1,13-18.87,35.89,35.89,0,0,1,6.26-5.95c8.49-6,19.89-5.13,30.11-3.35.68,4.35,1.37,8.77.81,13.14s-2.52,8.76-6.15,11.25a16.63,16.63,0,0,1-5.33,2.26c-12.64,3.22-26.45-2.46-38.88,1.48" transform="translate(138.03 15.33)"/><path class="cls-4" d="M533.32,285.09c-1.79-.26-3.9-.41-5.14.91-1.64,1.76-.36,4.81,1.69,6.07a6,6,0,0,0,5.79.42,4.42,4.42,0,0,0,2.28-5.08,3.5,3.5,0,0,0-4.9-1.93" transform="translate(138.03 15.33)"/></g></g></svg>